<svg width="126" height="29" viewBox="0 0 126 29" fill="none" xmlns="http://www.w3.org/2000/svg">
<path d="M46.5312 10.2031C47.1771 10.2031 47.7135 10.25 48.1406 10.3438L47.7812 14.8125C47.3958 14.7083 46.9271 14.6562 46.375 14.6562C44.8542 14.6562 43.6667 15.0469 42.8125 15.8281C41.9688 16.6094 41.5469 17.7031 41.5469 19.1094V28H36.7812V10.5312H40.3906L41.0938 13.4688H41.3281C41.8698 12.4896 42.599 11.7031 43.5156 11.1094C44.4427 10.5052 45.4479 10.2031 46.5312 10.2031ZM58.5469 13.5938C57.5365 13.5938 56.7448 13.9167 56.1719 14.5625C55.599 15.1979 55.2708 16.1042 55.1875 17.2812H61.875C61.8542 16.1042 61.5469 15.1979 60.9531 14.5625C60.3594 13.9167 59.5573 13.5938 58.5469 13.5938ZM59.2188 28.3125C56.4062 28.3125 54.2083 27.5365 52.625 25.9844C51.0417 24.4323 50.25 22.2344 50.25 19.3906C50.25 16.4635 50.9792 14.2031 52.4375 12.6094C53.9062 11.0052 55.9323 10.2031 58.5156 10.2031C60.9844 10.2031 62.9062 10.9062 64.2812 12.3125C65.6562 13.7188 66.3438 15.6615 66.3438 18.1406V20.4531H55.0781C55.1302 21.8073 55.5312 22.8646 56.2812 23.625C57.0312 24.3854 58.0833 24.7656 59.4375 24.7656C60.4896 24.7656 61.4844 24.6562 62.4219 24.4375C63.3594 24.2188 64.3385 23.8698 65.3594 23.3906V27.0781C64.526 27.4948 63.6354 27.8021 62.6875 28C61.7396 28.2083 60.5833 28.3125 59.2188 28.3125ZM77.3125 28.3125C71.875 28.3125 69.1562 25.3281 69.1562 19.3594C69.1562 16.3906 69.8958 14.125 71.375 12.5625C72.8542 10.9896 74.974 10.2031 77.7344 10.2031C79.7552 10.2031 81.5677 10.599 83.1719 11.3906L81.7656 15.0781C81.0156 14.776 80.3177 14.5312 79.6719 14.3438C79.026 14.1458 78.3802 14.0469 77.7344 14.0469C75.2552 14.0469 74.0156 15.8073 74.0156 19.3281C74.0156 22.7448 75.2552 24.4531 77.7344 24.4531C78.651 24.4531 79.5 24.3333 80.2812 24.0938C81.0625 23.8438 81.8438 23.4583 82.625 22.9375V27.0156C81.8542 27.5052 81.0729 27.8438 80.2812 28.0312C79.5 28.2188 78.5104 28.3125 77.3125 28.3125ZM86.4844 6.01562C86.4844 4.46354 87.349 3.6875 89.0781 3.6875C90.8073 3.6875 91.6719 4.46354 91.6719 6.01562C91.6719 6.75521 91.4531 7.33333 91.0156 7.75C90.5885 8.15625 89.9427 8.35938 89.0781 8.35938C87.349 8.35938 86.4844 7.57812 86.4844 6.01562ZM91.4531 28H86.6875V10.5312H91.4531V28ZM106.125 14.1094H102V28H97.2344V14.1094H94.6094V11.8125L97.2344 10.5312V9.25C97.2344 7.26042 97.724 5.80729 98.7031 4.89062C99.6823 3.97396 101.25 3.51562 103.406 3.51562C105.052 3.51562 106.516 3.76042 107.797 4.25L106.578 7.75C105.62 7.44792 104.734 7.29688 103.922 7.29688C103.245 7.29688 102.755 7.5 102.453 7.90625C102.151 8.30208 102 8.8125 102 9.4375V10.5312H106.125V14.1094ZM119.969 28L119.047 25.625H118.922C118.12 26.6354 117.292 27.3385 116.438 27.7344C115.594 28.1198 114.49 28.3125 113.125 28.3125C111.448 28.3125 110.125 27.8333 109.156 26.875C108.198 25.9167 107.719 24.5521 107.719 22.7812C107.719 20.9271 108.365 19.5625 109.656 18.6875C110.958 17.8021 112.917 17.3125 115.531 17.2188L118.562 17.125V16.3594C118.562 14.5885 117.656 13.7031 115.844 13.7031C114.448 13.7031 112.807 14.125 110.922 14.9688L109.344 11.75C111.354 10.6979 113.583 10.1719 116.031 10.1719C118.375 10.1719 120.172 10.6823 121.422 11.7031C122.672 12.724 123.297 14.276 123.297 16.3594V28H119.969ZM118.562 19.9062L116.719 19.9688C115.333 20.0104 114.302 20.2604 113.625 20.7188C112.948 21.1771 112.609 21.875 112.609 22.8125C112.609 24.1562 113.38 24.8281 114.922 24.8281C116.026 24.8281 116.906 24.5104 117.562 23.875C118.229 23.2396 118.562 22.3958 118.562 21.3438V19.9062Z" fill="#0577EC"/>
<rect y="23" width="30" height="5" rx="2.5" fill="#0577EC"/>
<rect y="14" width="30" height="5" rx="2.5" fill="#0577EC"/>
<rect y="5" width="30" height="5" rx="2.5" fill="#0577EC"/>
</svg>
